# This file uses centimeters as units for non-parametric coordinates.

mtllib crate_model.mtl
g default
v -2.268942 0.000000 2.559700
v 2.559700 0.000000 2.559700
v -2.268942 4.828643 2.559700
v 2.559700 4.828644 2.559700
v -2.268942 0.000000 -2.268942
v 2.559700 0.000000 -2.268942
v -2.268942 4.828643 -2.268942
v 2.559700 4.828643 -2.268942
vt 0.000629 0.000465
vt 0.999535 0.000465
vt 0.000629 0.999654
vt 0.999535 0.999654
vt 0.000629 0.000465
vt 0.999535 0.000465
vt 0.999535 0.999654
vt 0.000629 0.999654
vt 0.000629 0.000465
vt 0.999535 0.000465
vt 0.999535 0.999654
vt 0.000629 0.999654
vt 0.000629 0.000465
vt 0.999535 0.000465
vt 0.999535 0.999654
vt 0.000629 0.999654
vt 0.000629 0.000465
vt 0.999535 0.000465
vt 0.999535 0.999654
vt 0.000629 0.999654
vt 0.000629 0.000465
vt 0.999535 0.000465
vt 0.999535 0.999654
vt 0.000629 0.999654
vn 0.000000 0.000000 1.000000
vn 0.000000 0.000000 1.000000
vn 0.000000 0.000000 1.000000
vn 0.000000 0.000000 1.000000
vn 0.000000 0.000000 -1.000000
vn 0.000000 0.000000 -1.000000
vn 0.000000 0.000000 -1.000000
vn 0.000000 0.000000 -1.000000
vn 1.000000 0.000000 0.000000
vn 1.000000 0.000000 0.000000
vn 1.000000 0.000000 0.000000
vn 1.000000 0.000000 0.000000
vn -1.000000 0.000000 0.000000
vn -1.000000 0.000000 0.000000
vn -1.000000 0.000000 0.000000
vn -1.000000 0.000000 0.000000
vn 0.000000 -1.000000 0.000000
vn 0.000000 -1.000000 0.000000
vn 0.000000 -1.000000 0.000000
vn 0.000000 -1.000000 0.000000
vn -0.000000 1.000000 -0.000000
vn -0.000000 1.000000 -0.000000
vn -0.000000 1.000000 -0.000000
vn -0.000000 1.000000 -0.000000
s off
g crate_cube_sp
usemtl crate_SG
f 1/1/1 2/2/2 4/4/3 3/3/4
f 5/5/5 7/8/6 8/7/7 6/6/8
f 6/9/9 8/12/10 4/11/11 2/10/12
f 5/13/13 1/14/14 3/15/15 7/16/16
f 5/17/17 6/20/18 2/19/19 1/18/20
f 7/21/21 3/22/22 4/23/23 8/24/24
